<svg xmlns="http://www.w3.org/2000/svg" xmlns:xlink="http://www.w3.org/1999/xlink" width="23" height="23" viewBox="0 0 23 23"><defs><path id="iemwa" d="M682.34 717.75a8.27 8.27 0 0 1-8.78-1.33l.2.15c1.63-3.75 6.7-5.6 6.7-5.6l.05-.02c1.2 3.28 1.7 6.01 1.83 6.8zm-2.41-8.29c-.1.04-.22.07-.34.1 0 0-4.61 1.57-6.94 5.93a9.2 9.2 0 0 1-2.2-5.99c0-.1 0-.19.02-.29.14 0 4.36.11 8.77-1.27.24.5.48 1.01.69 1.52zm-1.4-2.9c-4.1 1.14-7.67 1.1-7.89 1.1a8.91 8.91 0 0 1 4.72-6.26c.11.16 1.69 2.4 3.17 5.16zm8.91 4.36a9.05 9.05 0 0 1-3.66 6.01 41.6 41.6 0 0 0-1.67-6.4c2.77-.46 5.15.34 5.33.4zm-10.48-10.12l-.03.01.03-.01zm7.68 1.98c-.03.04-1.24 1.98-4.45 3.24a44.03 44.03 0 0 0-3.2-5.22 8.26 8.26 0 0 1 7.66 1.98zm2.9 6.63c-.1-.02-3-.69-5.95-.3l-.18-.46-.57-1.3c3.37-1.44 4.74-3.52 4.76-3.55a9.25 9.25 0 0 1 1.95 5.6zm1.46.1c0-5.8-4.48-10.5-10-10.5s-10 4.7-10 10.5c0 5.78 4.48 10.49 10 10.49s10-4.7 10-10.5z"/></defs><g><g transform="translate(-668 -698)"><use fill="#fff" xlink:href="#iemwa"/></g></g></svg>