<svg xmlns="http://www.w3.org/2000/svg" xmlns:xlink="http://www.w3.org/1999/xlink" width="26" height="22" viewBox="0 0 26 22"><defs><path id="dejna" d="M653 702.75v12.5c0 2.07-1.93 3.75-4.3 3.75H634.3c-2.38 0-4.31-1.68-4.31-3.75v-12.5c0-2.06 1.93-3.74 4.31-3.74h14.38c2.38 0 4.31 1.68 4.31 3.74zm-15.72 3.5c-1.75 0-3.18 1.23-3.18 2.75s1.43 2.76 3.18 2.76c1.75 0 3.17-1.24 3.17-2.76 0-1.52-1.42-2.76-3.17-2.76zm8.45 0c-1.76 0-3.18 1.23-3.18 2.75s1.42 2.76 3.18 2.76c1.75 0 3.17-1.24 3.17-2.76 0-1.52-1.42-2.76-3.17-2.76z"/></defs><g><g transform="translate(-629 -698)"><use fill="#fff" xlink:href="#dejna"/></g></g></svg>