<svg xmlns="http://www.w3.org/2000/svg" xmlns:xlink="http://www.w3.org/1999/xlink" width="27" height="22" viewBox="0 0 27 22"><defs><path id="52ywa" d="M614 701.38c-.84.39-1.76.67-2.71.78a4.99 4.99 0 0 0 2.07-2.78c-.9.58-1.93 1-3 1.22a4.57 4.57 0 0 0-3.44-1.6c-2.61 0-4.71 2.27-4.71 5.05 0 .39.04.78.11 1.15a13.14 13.14 0 0 1-9.72-5.28 5.28 5.28 0 0 0 1.46 6.75 4.52 4.52 0 0 1-2.13-.64v.07a4.97 4.97 0 0 0 3.78 4.95 4.68 4.68 0 0 1-2.13.1c.6 2 2.34 3.44 4.4 3.5a9.06 9.06 0 0 1-6.99 2.08 12.7 12.7 0 0 0 7.25 2.27c8.67 0 13.41-7.69 13.41-14.36l-.01-.65c.92-.72 1.72-1.61 2.36-2.61z"/></defs><g><g transform="translate(-589 -698)"><use fill="#fff" xlink:href="#52ywa"/></g></g></svg>